<?xml version="1.0" encoding="utf-8"?>
<!-- Generator: Adobe Illustrator 27.8.1, SVG Export Plug-In . SVG Version: 6.00 Build 0)  -->
<svg version="1.1" id="Layer_1" xmlns="http://www.w3.org/2000/svg" xmlns:xlink="http://www.w3.org/1999/xlink" x="0px" y="0px"
	 viewBox="0 0 900 568" style="enable-background:new 0 0 900 568;" xml:space="preserve">
<style type="text/css">
	.st0{fill:#FFFFFF;}
</style>
<path class="st0" d="M136.2,438.26c-31.6-0.77-58.01-12.39-80.08-34.74c-10.69-10.83-20.93-21.8-27.91-35.55
	c-20.77-40.88-13.3-91.27,18.6-124.13c42.81-44.09,112.04-44.46,155.47-1.01c11.94,11.94,23.43,24.04,30.77,39.58
	c28.27,59.93-1.51,133.7-70.28,151.81C154.15,436.5,145.06,436.96,136.2,438.26z M125.72,410.38c2.58-0.18,6.26-0.23,9.89-0.7
	c60.67-7.77,96.67-69.4,73.35-125.86c-5.26-12.73-12.35-24.66-24.13-32.39c-19.6-12.86-41.25-17.01-64.48-13.36
	c-52.41,8.23-88,61.59-75.18,113.14c3.08,12.37,7.58,24.36,16.83,33.5C79.27,401.79,100.49,409.84,125.72,410.38z M208.71,273.7
	c18.35,41.21,15.1,79.23-16.34,111.15c-32.13,32.61-70.67,36.82-111.93,18.07c25.44,22.15,76.72,28.76,114.33-3.31
	C233.76,366.36,236.91,310.59,208.71,273.7z M176.53,228.12c-38.45-23.1-94.7-19.07-130.82,21.93
	c-34.57,39.23-30.59,93-10.45,122.81c-16.23-44.48-10.87-85.35,22.52-119.45C91.18,219.3,131.9,212.97,176.53,228.12z"/>
<path class="st0" d="M689.6,320.94c3.61,1.92,7.28,3.76,10.83,5.78c20.46,11.66,20.24,47.82-4.3,60.1
	c-8.78,4.4-18.08,7.03-27.83,7.2c-19.32,0.34-38.65,0.14-57.98,0.28c-3.39,0.03-4.89-1.1-4.72-4.62c0.19-3.99,0.01-8,0.04-11.99
	c0.04-6.69,0.05-6.72,6.59-6.73c17-0.03,33.99,0.12,50.99-0.11c4.6-0.06,9.36-0.64,13.73-2c7.82-2.44,11.87-8.4,11.9-16.01
	c0.03-7.9-4.11-14.05-12.01-16.47c-4.39-1.34-9.13-2.01-13.72-2.08c-17.16-0.25-34.32-0.24-51.48-0.04
	c-4.42,0.05-6.54-0.98-6.04-5.82c0.37-3.63,0.29-7.35-0.03-10.98c-0.38-4.17,1.15-5.53,5.32-5.48c14.83,0.18,29.67,0.4,44.48-0.16
	c5.99-0.22,12.17-1.71,17.8-3.85c6.62-2.51,8.14-8.6,7.93-15.27c-0.2-6.54-3.09-11.43-9.11-13.6c-4.45-1.6-9.35-2.58-14.08-2.68
	c-15.49-0.32-30.99-0.24-46.48-0.04c-4.25,0.05-6.13-1.14-5.84-5.63c0.3-4.65-0.19-9.35,0.22-13.98c0.12-1.37,2.15-3.71,3.26-3.69
	c22.78,0.38,45.82-0.87,68.27,2.14c27.86,3.74,39.24,34.85,22.24,56.54C696.87,315.17,693.1,317.76,689.6,320.94z"/>
<path class="st0" d="M849.63,294.55c-20.5,25.16-41,50.31-62.22,76.36c2.92,0,4.69,0,6.46,0c21.99,0,43.98,0.12,65.96-0.08
	c4.83-0.05,6.62,1.55,6.27,6.32c-0.31,4.14-0.16,8.33-0.06,12.49c0.08,3.3-1.13,4.76-4.67,4.75c-35.65-0.09-71.29-0.09-106.94-0.04
	c-3.42,0.01-4.98-1.3-4.63-4.74c0.03-0.33,0.04-0.67-0.01-1c-1.31-9.14,1.75-16.27,7.9-23.4c19.58-22.68,38.33-46.06,57.61-69
	c1.54-1.83,4.63-3.16,7.06-3.27c8.75-0.39,17.53-0.15,26.3-0.15C848.99,293.38,849.31,293.96,849.63,294.55z"/>
<path class="st0" d="M495.42,252.75c9.01,0,17.13-0.18,25.23,0.18c1.32,0.06,3.14,2.24,3.72,3.82
	c12.37,33.54,24.59,67.14,36.84,100.72c3.7,10.15,7.4,20.3,11.08,30.46c0.61,1.68,1.14,3.39,2.12,6.34c-5.68,0-10.55,0-15.42,0
	c-11.96-0.01-12.3,0.11-16.44-11.1c-15.39-41.63-30.54-83.35-45.75-125.04C496.3,256.78,496.07,255.32,495.42,252.75z"/>
<path class="st0" d="M356.57,277.22c-17.3,0-34.61-0.11-51.91,0.08c-4.31,0.05-6.07-1.26-5.77-5.7c0.3-4.47,0.26-8.99,0.03-13.47
	c-0.2-3.9,1.36-5.33,5.22-5.28c10.98,0.14,21.96,0.04,32.94,0.04c23.62-0.01,47.25,0.12,70.87-0.12c4.77-0.05,6.15,1.66,5.9,6.05
	c-0.24,4.14-0.25,8.33,0.03,12.47c0.31,4.47-1.2,6.1-5.91,6.03C390.84,277.07,373.7,277.22,356.57,277.22z"/>
<path class="st0" d="M809.49,276.29c-16.99,0-33.99-0.13-50.98,0.09c-4.6,0.06-6.33-1.44-5.98-6.02c0.29-3.81,0.32-7.68-0.03-11.48
	c-0.46-4.98,1.76-6.24,6.37-6.19c17.99,0.18,35.99,0.08,53.98,0.08c15.83,0,31.66,0.11,47.48-0.09c4.38-0.06,6.04,1.49,5.8,5.8
	c-0.23,4.15-0.22,8.34-0.01,12.49c0.22,4.21-1.65,5.44-5.66,5.4C843.48,276.2,826.48,276.29,809.49,276.29z"/>
<path class="st0" d="M483.53,285.84c3.07,7.99,5.78,16.15,9.31,23.93c2.84,6.25,2.54,11.63-0.2,17.97
	c-8.79,20.28-16.99,40.82-25.15,61.36c-1.54,3.87-3.51,5.43-7.69,5.24c-6.76-0.32-13.55-0.09-21.71-0.09
	c14.96-36.94,29.46-72.74,43.96-108.55C482.54,285.74,483.03,285.79,483.53,285.84z"/>
<path class="st0" d="M369.27,346.48c0,13.82-0.23,27.65,0.12,41.47c0.13,5.21-1.63,6.74-6.58,6.35c-4.8-0.38-9.67-0.31-14.48,0
	c-4.56,0.29-5.17-2.1-5.16-5.8c0.08-25.15,0.04-50.3,0.04-75.44c0-3.33,0.07-6.66,0.01-9.99c-0.05-2.83,0.98-4.33,4.07-4.27
	c5.83,0.12,11.66,0.18,17.48-0.02c3.6-0.13,4.56,1.42,4.53,4.75C369.21,317.84,369.27,332.16,369.27,346.48z"/>
</svg>
